ffmpeg started on 2025-06-07 at 15:37:36
Report written to "D:\Convert\FFMetrics\reports\ssim_report-6.txt"
Log level: 32
Command line:
ffmpeg -hide_banner -nostdin -i "G:\\\xc0\xed\xe8\xec\xe5\\\xce\xed\xe3\xee\xe8\xed\xe3\xe8\\!_36_\xce\xf1\xe5\xed\xfc_2024\\DreamCast\\\xd1\xee\xe1\xeb\xe0\xe7\xed 2,5-\xec\xe5\xf0\xed\xee\xe3\xee \xe8\xe7\xec\xe5\xf0\xe5\xed\xe8\xff\\[DC] 2-5 Jigen no Ririsa - 18_Telegram_HEVC.mkv" -i "G:\\\xc0\xed\xe8\xec\xe5\\\xce\xed\xe3\xee\xe8\xed\xe3\xe8\\!_36_\xce\xf1\xe5\xed\xfc_2024\\DreamCast\\\xd1\xee\xe1\xeb\xe0\xe7\xed 2,5-\xec\xe5\xf0\xed\xee\xe3\xee \xe8\xe7\xec\xe5\xf0\xe5\xed\xe8\xff\\[DC] 2-5 Jigen no Ririsa - 18_Telegram.mp4" -lavfi "[0:v]settb=AVTB,setpts=PTS-STARTPTS,format=pix_fmts=yuv420p10,fps=24/1,scale=1920:1080:flags=bicubic[main];[1:v]settb=AVTB,setpts=PTS-STARTPTS,format=pix_fmts=yuv420p,fps=24/1,scale=1920:1080:flags=bicubic[ref];[main][ref]ssim=eof_action=endall:stats_file='D\\:/Convert/FFMetrics/logs/ssim_logfile-6.txt'" -f null -
Input #0, matroska,webm, from 'G:\Аниме\Онгоинги\!_36_Осень_2024\DreamCast\Соблазн 2,5-мерного измерения\[DC] 2-5 Jigen no Ririsa - 18_Telegram_HEVC.mkv':
  Metadata:
    COMPATIBLE_BRANDS: isomiso2avc1mp41
    MAJOR_BRAND     : isom
    MINOR_VERSION   : 512
    ENCODER         : Lavf61.7.100
  Duration: 00:24:09.13, start: -0.021000, bitrate: 1270 kb/s
  Stream #0:0: Video: hevc (Main 10), yuv420p10le(tv, bt709, progressive), 1920x1080 [SAR 1:1 DAR 16:9], 24 fps, 24 tbr, 1k tbn (default)
      Metadata:
        HANDLER_NAME    : VideoHandler
        VENDOR_ID       : [0][0][0][0]
        ENCODER         : Lavc61.19.100 libx265
        BPS             : 1073873
        DURATION        : 00:24:08.999666666
        NUMBER_OF_FRAMES: 34776
        NUMBER_OF_BYTES : 194505169
        _STATISTICS_WRITING_APP: mkvpropedit v66.0.0 ('Josie') 64-bit
        _STATISTICS_WRITING_DATE_UTC: 2025-06-04 12:52:14
        _STATISTICS_TAGS: BPS DURATION NUMBER_OF_FRAMES NUMBER_OF_BYTES
  Stream #0:1: Audio: aac (LC), 48000 Hz, stereo, fltp (default)
      Metadata:
        HANDLER_NAME    : SoundHandler
        VENDOR_ID       : [0][0][0][0]
        ENCODER         : Lavc61.19.100 aac
        BPS             : 192780
        DURATION        : 00:24:09.130000000
        NUMBER_OF_FRAMES: 67929
        NUMBER_OF_BYTES : 34920517
        _STATISTICS_WRITING_APP: mkvpropedit v66.0.0 ('Josie') 64-bit
        _STATISTICS_WRITING_DATE_UTC: 2025-06-04 12:52:14
        _STATISTICS_TAGS: BPS DURATION NUMBER_OF_FRAMES NUMBER_OF_BYTES
Input #1, mov,mp4,m4a,3gp,3g2,mj2, from 'G:\Аниме\Онгоинги\!_36_Осень_2024\DreamCast\Соблазн 2,5-мерного измерения\[DC] 2-5 Jigen no Ririsa - 18_Telegram.mp4':
  Metadata:
    major_brand     : isom
    minor_version   : 512
    compatible_brands: isomiso2avc1mp41
    encoder         : Lavf61.1.100
  Duration: 00:24:09.07, start: 0.000000, bitrate: 3872 kb/s
  Stream #1:0[0x1](und): Video: h264 (High) (avc1 / 0x31637661), yuv420p(tv, bt709, progressive), 1920x1080 [SAR 1:1 DAR 16:9], 3724 kb/s, 24 fps, 24 tbr, 12288 tbn (default)
      Metadata:
        handler_name    : VideoHandler
        vendor_id       : [0][0][0][0]
        encoder         : Lavc61.3.100 h264_qsv
  Stream #1:1[0x2](und): Audio: aac (HE-AACv2) (mp4a / 0x6134706D), 48000 Hz, stereo, fltp, 144 kb/s (default)
      Metadata:
        handler_name    : SoundHandler
        vendor_id       : [0][0][0][0]
Stream mapping:
  Stream #0:0 (hevc) -> settb:default
  Stream #1:0 (h264) -> settb:default
  ssim:default -> Stream #0:0 (wrapped_avframe)
  Stream #0:1 -> #0:1 (aac (native) -> pcm_s16le (native))
Output #0, null, to 'pipe:':
  Metadata:
    COMPATIBLE_BRANDS: isomiso2avc1mp41
    MAJOR_BRAND     : isom
    MINOR_VERSION   : 512
    encoder         : Lavf61.7.100
  Stream #0:0: Video: wrapped_avframe, yuv420p10le(tv, bt709, progressive), 1920x1080 [SAR 1:1 DAR 16:9], q=2-31, 200 kb/s, 24 fps, 24 tbn
      Metadata:
        encoder         : Lavc61.19.100 wrapped_avframe
  Stream #0:1: Audio: pcm_s16le, 48000 Hz, stereo, s16, 1536 kb/s (default)
      Metadata:
        HANDLER_NAME    : SoundHandler
        VENDOR_ID       : [0][0][0][0]
        _STATISTICS_TAGS: BPS DURATION NUMBER_OF_FRAMES NUMBER_OF_BYTES
        BPS             : 192780
        DURATION        : 00:24:09.130000000
        NUMBER_OF_FRAMES: 67929
        NUMBER_OF_BYTES : 34920517
        _STATISTICS_WRITING_APP: mkvpropedit v66.0.0 ('Josie') 64-bit
        _STATISTICS_WRITING_DATE_UTC: 2025-06-04 12:52:14
        encoder         : Lavc61.19.100 pcm_s16le
frame=  185 fps=0.0 q=-0.0 size=N/A time=00:00:07.70 bitrate=N/A speed=14.9x    frame=  401 fps=390 q=-0.0 size=N/A time=00:00:16.70 bitrate=N/A speed=16.3x    frame=  643 fps=418 q=-0.0 size=N/A time=00:00:26.79 bitrate=N/A speed=17.4x    frame=  916 fps=444 q=-0.0 size=N/A time=00:00:38.16 bitrate=N/A speed=18.5x    frame= 1150 fps=447 q=-0.0 size=N/A time=00:00:47.91 bitrate=N/A speed=18.6x    frame= 1392 fps=449 q=-0.0 size=N/A time=00:00:58.00 bitrate=N/A speed=18.7x    frame= 1633 fps=452 q=-0.0 size=N/A time=00:01:08.04 bitrate=N/A speed=18.8x    frame= 1834 fps=445 q=-0.0 size=N/A time=00:01:16.41 bitrate=N/A speed=18.5x    frame= 2045 fps=441 q=-0.0 size=N/A time=00:01:25.20 bitrate=N/A speed=18.4x    frame= 2286 fps=443 q=-0.0 size=N/A time=00:01:35.25 bitrate=N/A speed=18.5x    frame= 2522 fps=445 q=-0.0 size=N/A time=00:01:45.08 bitrate=N/A speed=18.5x    frame= 2754 fps=446 q=-0.0 size=N/A time=00:01:54.75 bitrate=N/A speed=18.6x    frame= 2990 fps=446 q=-0.0 size=N/A time=00:02:04.58 bitrate=N/A speed=18.6x    frame= 3143 fps=436 q=-0.0 size=N/A time=00:02:10.95 bitrate=N/A speed=18.2x    frame= 3337 fps=431 q=-0.0 size=N/A time=00:02:19.04 bitrate=N/A speed=  18x    frame= 3558 fps=431 q=-0.0 size=N/A time=00:02:28.25 bitrate=N/A speed=  18x    frame= 3752 fps=428 q=-0.0 size=N/A time=00:02:36.33 bitrate=N/A speed=17.9x    frame= 3963 fps=427 q=-0.0 size=N/A time=00:02:45.12 bitrate=N/A speed=17.8x    frame= 4205 fps=429 q=-0.0 size=N/A time=00:02:55.20 bitrate=N/A speed=17.9x    frame= 4434 fps=430 q=-0.0 size=N/A time=00:03:04.75 bitrate=N/A speed=17.9x    frame= 4658 fps=430 q=-0.0 size=N/A time=00:03:14.08 bitrate=N/A speed=17.9x    frame= 4907 fps=433 q=-0.0 size=N/A time=00:03:24.45 bitrate=N/A speed=  18x    frame= 5146 fps=434 q=-0.0 size=N/A time=00:03:34.41 bitrate=N/A speed=18.1x    frame= 5394 fps=436 q=-0.0 size=N/A time=00:03:44.75 bitrate=N/A speed=18.2x    frame= 5626 fps=437 q=-0.0 size=N/A time=00:03:54.41 bitrate=N/A speed=18.2x    frame= 5863 fps=437 q=-0.0 size=N/A time=00:04:04.29 bitrate=N/A speed=18.2x    frame= 6094 fps=438 q=-0.0 size=N/A time=00:04:13.91 bitrate=N/A speed=18.2x    frame= 6354 fps=440 q=-0.0 size=N/A time=00:04:24.75 bitrate=N/A speed=18.3x    frame= 6607 fps=442 q=-0.0 size=N/A time=00:04:35.29 bitrate=N/A speed=18.4x    frame= 6845 fps=442 q=-0.0 size=N/A time=00:04:45.20 bitrate=N/A speed=18.4x    frame= 7095 fps=444 q=-0.0 size=N/A time=00:04:55.62 bitrate=N/A speed=18.5x    frame= 7365 fps=447 q=-0.0 size=N/A time=00:05:06.87 bitrate=N/A speed=18.6x    frame= 7609 fps=447 q=-0.0 size=N/A time=00:05:17.04 bitrate=N/A speed=18.6x    frame= 7847 fps=448 q=-0.0 size=N/A time=00:05:26.95 bitrate=N/A speed=18.7x    frame= 8115 fps=450 q=-0.0 size=N/A time=00:05:38.12 bitrate=N/A speed=18.7x    frame= 8383 fps=451 q=-0.0 size=N/A time=00:05:49.29 bitrate=N/A speed=18.8x    frame= 8632 fps=453 q=-0.0 size=N/A time=00:05:59.66 bitrate=N/A speed=18.9x    frame= 8898 fps=454 q=-0.0 size=N/A time=00:06:10.75 bitrate=N/A speed=18.9x    frame= 9142 fps=455 q=-0.0 size=N/A time=00:06:20.91 bitrate=N/A speed=18.9x    frame= 9375 fps=455 q=-0.0 size=N/A time=00:06:30.62 bitrate=N/A speed=18.9x    frame= 9634 fps=456 q=-0.0 size=N/A time=00:06:41.41 bitrate=N/A speed=  19x    frame= 9892 fps=457 q=-0.0 size=N/A time=00:06:52.16 bitrate=N/A speed=  19x    frame=10161 fps=458 q=-0.0 size=N/A time=00:07:03.37 bitrate=N/A speed=19.1x    frame=10408 fps=459 q=-0.0 size=N/A time=00:07:13.66 bitrate=N/A speed=19.1x    frame=10638 fps=458 q=-0.0 size=N/A time=00:07:23.25 bitrate=N/A speed=19.1x    frame=10846 fps=457 q=-0.0 size=N/A time=00:07:31.91 bitrate=N/A speed=19.1x    frame=11025 fps=455 q=-0.0 size=N/A time=00:07:39.37 bitrate=N/A speed=  19x    frame=11242 fps=454 q=-0.0 size=N/A time=00:07:48.41 bitrate=N/A speed=18.9x    frame=11481 fps=455 q=-0.0 size=N/A time=00:07:58.37 bitrate=N/A speed=18.9x    frame=11731 fps=455 q=-0.0 size=N/A time=00:08:08.79 bitrate=N/A speed=  19x    frame=11974 fps=455 q=-0.0 size=N/A time=00:08:18.91 bitrate=N/A speed=  19x    frame=12218 fps=456 q=-0.0 size=N/A time=00:08:29.08 bitrate=N/A speed=  19x    frame=12464 fps=456 q=-0.0 size=N/A time=00:08:39.33 bitrate=N/A speed=  19x    frame=12688 fps=456 q=-0.0 size=N/A time=00:08:48.66 bitrate=N/A speed=  19x    frame=12911 fps=455 q=-0.0 size=N/A time=00:08:57.95 bitrate=N/A speed=  19x    frame=13173 fps=456 q=-0.0 size=N/A time=00:09:08.87 bitrate=N/A speed=  19x    frame=13412 fps=456 q=-0.0 size=N/A time=00:09:18.83 bitrate=N/A speed=  19x    frame=13628 fps=456 q=-0.0 size=N/A time=00:09:27.83 bitrate=N/A speed=  19x    frame=13897 fps=457 q=-0.0 size=N/A time=00:09:39.04 bitrate=N/A speed=  19x    frame=14140 fps=457 q=-0.0 size=N/A time=00:09:49.16 bitrate=N/A speed=  19x    frame=14402 fps=458 q=-0.0 size=N/A time=00:10:00.08 bitrate=N/A speed=19.1x    frame=14663 fps=459 q=-0.0 size=N/A time=00:10:10.95 bitrate=N/A speed=19.1x    frame=14874 fps=458 q=-0.0 size=N/A time=00:10:19.75 bitrate=N/A speed=19.1x    frame=15102 fps=458 q=-0.0 size=N/A time=00:10:29.25 bitrate=N/A speed=19.1x    frame=15374 fps=459 q=-0.0 size=N/A time=00:10:40.58 bitrate=N/A speed=19.1x    frame=15619 fps=459 q=-0.0 size=N/A time=00:10:50.79 bitrate=N/A speed=19.1x    frame=15859 fps=459 q=-0.0 size=N/A time=00:11:00.79 bitrate=N/A speed=19.1x    frame=16107 fps=459 q=-0.0 size=N/A time=00:11:11.12 bitrate=N/A speed=19.1x    frame=16371 fps=460 q=-0.0 size=N/A time=00:11:22.12 bitrate=N/A speed=19.2x    frame=16630 fps=461 q=-0.0 size=N/A time=00:11:32.91 bitrate=N/A speed=19.2x    frame=16883 fps=461 q=-0.0 size=N/A time=00:11:43.45 bitrate=N/A speed=19.2x    frame=17143 fps=462 q=-0.0 size=N/A time=00:11:54.29 bitrate=N/A speed=19.2x    frame=17392 fps=462 q=-0.0 size=N/A time=00:12:04.66 bitrate=N/A speed=19.2x    frame=17628 fps=462 q=-0.0 size=N/A time=00:12:14.50 bitrate=N/A speed=19.2x    frame=17855 fps=462 q=-0.0 size=N/A time=00:12:23.95 bitrate=N/A speed=19.2x    frame=18098 fps=462 q=-0.0 size=N/A time=00:12:34.08 bitrate=N/A speed=19.2x    frame=18345 fps=462 q=-0.0 size=N/A time=00:12:44.41 bitrate=N/A speed=19.3x    frame=18592 fps=462 q=-0.0 size=N/A time=00:12:54.66 bitrate=N/A speed=19.3x    frame=18858 fps=463 q=-0.0 size=N/A time=00:13:05.75 bitrate=N/A speed=19.3x    frame=19103 fps=463 q=-0.0 size=N/A time=00:13:15.95 bitrate=N/A speed=19.3x    frame=19324 fps=463 q=-0.0 size=N/A time=00:13:25.16 bitrate=N/A speed=19.3x    frame=19567 fps=463 q=-0.0 size=N/A time=00:13:35.29 bitrate=N/A speed=19.3x    frame=19826 fps=463 q=-0.0 size=N/A time=00:13:46.08 bitrate=N/A speed=19.3x    frame=20088 fps=464 q=-0.0 size=N/A time=00:13:57.00 bitrate=N/A speed=19.3x    frame=20281 fps=463 q=-0.0 size=N/A time=00:14:05.04 bitrate=N/A speed=19.3x    frame=20520 fps=463 q=-0.0 size=N/A time=00:14:15.00 bitrate=N/A speed=19.3x    frame=20764 fps=463 q=-0.0 size=N/A time=00:14:25.16 bitrate=N/A speed=19.3x    frame=20974 fps=462 q=-0.0 size=N/A time=00:14:33.91 bitrate=N/A speed=19.3x    frame=21221 fps=462 q=-0.0 size=N/A time=00:14:44.20 bitrate=N/A speed=19.3x    frame=21473 fps=463 q=-0.0 size=N/A time=00:14:54.70 bitrate=N/A speed=19.3x    frame=21724 fps=463 q=-0.0 size=N/A time=00:15:05.16 bitrate=N/A speed=19.3x    frame=21958 fps=463 q=-0.0 size=N/A time=00:15:14.91 bitrate=N/A speed=19.3x    frame=22180 fps=463 q=-0.0 size=N/A time=00:15:24.16 bitrate=N/A speed=19.3x    frame=22422 fps=463 q=-0.0 size=N/A time=00:15:34.25 bitrate=N/A speed=19.3x    frame=22672 fps=463 q=-0.0 size=N/A time=00:15:44.66 bitrate=N/A speed=19.3x    frame=22929 fps=463 q=-0.0 size=N/A time=00:15:55.37 bitrate=N/A speed=19.3x    frame=23192 fps=464 q=-0.0 size=N/A time=00:16:06.33 bitrate=N/A speed=19.3x    frame=23403 fps=463 q=-0.0 size=N/A time=00:16:15.12 bitrate=N/A speed=19.3x    frame=23606 fps=462 q=-0.0 size=N/A time=00:16:23.58 bitrate=N/A speed=19.3x    frame=23792 fps=461 q=-0.0 size=N/A time=00:16:31.33 bitrate=N/A speed=19.2x    frame=24020 fps=461 q=-0.0 size=N/A time=00:16:40.83 bitrate=N/A speed=19.2x    frame=24271 fps=461 q=-0.0 size=N/A time=00:16:51.29 bitrate=N/A speed=19.2x    frame=24459 fps=460 q=-0.0 size=N/A time=00:16:59.12 bitrate=N/A speed=19.2x    frame=24700 fps=461 q=-0.0 size=N/A time=00:17:09.16 bitrate=N/A speed=19.2x    frame=24903 fps=460 q=-0.0 size=N/A time=00:17:17.62 bitrate=N/A speed=19.2x    frame=25120 fps=460 q=-0.0 size=N/A time=00:17:26.66 bitrate=N/A speed=19.2x    frame=25326 fps=459 q=-0.0 size=N/A time=00:17:35.25 bitrate=N/A speed=19.1x    frame=25558 fps=459 q=-0.0 size=N/A time=00:17:44.91 bitrate=N/A speed=19.1x    frame=25819 fps=459 q=-0.0 size=N/A time=00:17:55.79 bitrate=N/A speed=19.1x    frame=26062 fps=459 q=-0.0 size=N/A time=00:18:05.91 bitrate=N/A speed=19.1x    frame=26287 fps=459 q=-0.0 size=N/A time=00:18:15.29 bitrate=N/A speed=19.1x    frame=26539 fps=460 q=-0.0 size=N/A time=00:18:25.79 bitrate=N/A speed=19.1x    frame=26761 fps=459 q=-0.0 size=N/A time=00:18:35.04 bitrate=N/A speed=19.1x    frame=27003 fps=459 q=-0.0 size=N/A time=00:18:45.12 bitrate=N/A speed=19.1x    frame=27213 fps=459 q=-0.0 size=N/A time=00:18:53.87 bitrate=N/A speed=19.1x    frame=27460 fps=459 q=-0.0 size=N/A time=00:19:04.16 bitrate=N/A speed=19.1x    frame=27698 fps=459 q=-0.0 size=N/A time=00:19:14.08 bitrate=N/A speed=19.1x    frame=27940 fps=459 q=-0.0 size=N/A time=00:19:24.16 bitrate=N/A speed=19.1x    frame=28192 fps=460 q=-0.0 size=N/A time=00:19:34.66 bitrate=N/A speed=19.1x    frame=28441 fps=460 q=-0.0 size=N/A time=00:19:45.04 bitrate=N/A speed=19.2x    frame=28673 fps=460 q=-0.0 size=N/A time=00:19:54.70 bitrate=N/A speed=19.1x    frame=28928 fps=460 q=-0.0 size=N/A time=00:20:05.33 bitrate=N/A speed=19.2x    frame=29184 fps=460 q=-0.0 size=N/A time=00:20:16.00 bitrate=N/A speed=19.2x    frame=29410 fps=460 q=-0.0 size=N/A time=00:20:25.41 bitrate=N/A speed=19.2x    frame=29606 fps=459 q=-0.0 size=N/A time=00:20:33.58 bitrate=N/A speed=19.1x    frame=29843 fps=459 q=-0.0 size=N/A time=00:20:43.45 bitrate=N/A speed=19.1x    frame=30088 fps=459 q=-0.0 size=N/A time=00:20:53.66 bitrate=N/A speed=19.1x    frame=30310 fps=459 q=-0.0 size=N/A time=00:21:02.91 bitrate=N/A speed=19.1x    frame=30520 fps=459 q=-0.0 size=N/A time=00:21:11.66 bitrate=N/A speed=19.1x    frame=30774 fps=459 q=-0.0 size=N/A time=00:21:22.25 bitrate=N/A speed=19.1x    frame=31018 fps=459 q=-0.0 size=N/A time=00:21:32.41 bitrate=N/A speed=19.1x    frame=31271 fps=459 q=-0.0 size=N/A time=00:21:42.95 bitrate=N/A speed=19.1x    frame=31488 fps=459 q=-0.0 size=N/A time=00:21:52.00 bitrate=N/A speed=19.1x    frame=31701 fps=459 q=-0.0 size=N/A time=00:22:00.87 bitrate=N/A speed=19.1x    frame=31950 fps=459 q=-0.0 size=N/A time=00:22:11.25 bitrate=N/A speed=19.1x    frame=32191 fps=459 q=-0.0 size=N/A time=00:22:21.29 bitrate=N/A speed=19.1x    frame=32371 fps=458 q=-0.0 size=N/A time=00:22:28.79 bitrate=N/A speed=19.1x    frame=32609 fps=458 q=-0.0 size=N/A time=00:22:38.70 bitrate=N/A speed=19.1x    frame=32827 fps=458 q=-0.0 size=N/A time=00:22:47.79 bitrate=N/A speed=19.1x    frame=33075 fps=458 q=-0.0 size=N/A time=00:22:58.12 bitrate=N/A speed=19.1x    frame=33326 fps=458 q=-0.0 size=N/A time=00:23:08.58 bitrate=N/A speed=19.1x    frame=33562 fps=458 q=-0.0 size=N/A time=00:23:18.41 bitrate=N/A speed=19.1x    frame=33802 fps=458 q=-0.0 size=N/A time=00:23:28.41 bitrate=N/A speed=19.1x    frame=34031 fps=458 q=-0.0 size=N/A time=00:23:37.95 bitrate=N/A speed=19.1x    frame=34226 fps=458 q=-0.0 size=N/A time=00:23:46.08 bitrate=N/A speed=19.1x    frame=34450 fps=458 q=-0.0 size=N/A time=00:23:55.41 bitrate=N/A speed=19.1x    frame=34659 fps=457 q=-0.0 size=N/A time=00:24:04.12 bitrate=N/A speed=  19x    [Parsed_ssim_10 @ 000001adfcdb7e00] SSIM Y:0.992714 (21.375052) U:0.993200 (21.674796) V:0.993393 (21.799873) All:0.992908 (21.492345)
[out#0/null @ 000001adf00c4a40] video:14943KiB audio:271716KiB subtitle:0KiB other streams:0KiB global headers:0KiB muxing overhead: unknown
frame=34776 fps=457 q=-0.0 Lsize=N/A time=00:24:09.00 bitrate=N/A speed=19.1x    
